<svg width="128" height="128" viewBox="0 0 128 128" xmlns="http://www.w3.org/2000/svg">
  <polygon points="64.00,13.00 74.85,41.48 103.87,32.20 88.37,58.44 113.72,75.35 83.55,79.59 86.13,109.95 64.00,89.00 41.87,109.95 44.45,79.59 14.28,75.35 39.63,58.44 24.13,32.20 53.15,41.48" fill="#FF1E00"/>
  <polygon points="64.00,64.00 53.15,41.48 64.00,13.00 74.85,41.48" fill="hsl(7.1, 100.0%, 50.0%)"/>
  <polygon points="64.00,64.00 74.85,41.48 103.87,32.20 88.37,58.44" fill="hsl(20.4, 93.3%, 36.7%)"/>
  <polygon points="64.00,64.00 88.37,58.44 113.72,75.35 83.55,79.59" fill="hsl(27.1, 90.0%, 30.0%)"/>
  <polygon points="64.00,64.00 83.55,79.59 86.13,109.95 64.00,89.00" fill="hsl(13.7, 96.7%, 43.3%)"/>
  <polygon points="64.00,64.00 64.00,89.00 41.87,109.95 44.45,79.59" fill="hsl(0.4, 100.0%, 56.7%)"/>
  <polygon points="64.00,64.00 44.45,79.59 14.28,75.35 39.63,58.44" fill="hsl(347.1, 100.0%, 70.0%)"/>
  <polygon points="64.00,64.00 39.63,58.44 24.13,32.20 53.15,41.48" fill="hsl(353.7, 100.0%, 63.3%)"/>
</svg>