<svg width="128" height="128" viewBox="0 0 128 128" xmlns="http://www.w3.org/2000/svg">
  <polygon points="64.00,13.00 76.50,42.35 108.17,38.50 89.00,64.00 108.17,89.50 76.50,85.65 64.00,115.00 51.50,85.65 19.83,89.50 39.00,64.00 19.83,38.50 51.50,42.35" fill="#8A2BE2"/>
  <polygon points="64.00,64.00 51.50,42.35 64.00,13.00 76.50,42.35" fill="hsl(267.1, 77.9%, 56.7%)"/>
  <polygon points="64.00,64.00 76.50,42.35 108.17,38.50 89.00,64.00" fill="hsl(283.1, 69.9%, 40.7%)"/>
  <polygon points="64.00,64.00 89.00,64.00 108.17,89.50 76.50,85.65" fill="hsl(291.1, 65.9%, 32.7%)"/>
  <polygon points="64.00,64.00 76.50,85.65 64.00,115.00 51.50,85.65" fill="hsl(275.1, 73.9%, 48.7%)"/>
  <polygon points="64.00,64.00 51.50,85.65 19.83,89.50 39.00,64.00" fill="hsl(251.1, 85.9%, 72.7%)"/>
  <polygon points="64.00,64.00 39.00,64.00 19.83,38.50 51.50,42.35" fill="hsl(259.1, 81.9%, 64.7%)"/>
</svg>