<svg width="128" height="128" viewBox="0 0 128 128" xmlns="http://www.w3.org/2000/svg">
  <polygon points="64.00,13.00 78.69,43.77 112.50,48.24 87.78,71.73 93.98,105.26 64.00,89.00 34.02,105.26 40.22,71.73 15.50,48.24 49.31,43.77" fill="#FF19D9"/>
  <polygon points="64.00,64.00 49.31,43.77 64.00,13.00 78.69,43.77" fill="hsl(309.9, 100.0%, 54.9%)"/>
  <polygon points="64.00,64.00 78.69,43.77 112.50,48.24 87.78,71.73" fill="hsl(329.9, 90.0%, 34.9%)"/>
  <polygon points="64.00,64.00 87.78,71.73 93.98,105.26 64.00,89.00" fill="hsl(319.9, 95.0%, 44.9%)"/>
  <polygon points="64.00,64.00 64.00,89.00 34.02,105.26 40.22,71.73" fill="hsl(299.9, 100.0%, 64.9%)"/>
  <polygon points="64.00,64.00 40.22,71.73 15.50,48.24 49.31,43.77" fill="hsl(289.9, 100.0%, 74.9%)"/>
</svg>