<svg version="1.1"
      xmlns="http://www.w3.org/2000/svg"
      xmlns:xlink="http://www.w3.org/1999/xlink"  id="snapshot-11423" width="250" height="250" viewBox="0 0 250 250"><desc>This image was made on Patterninja.com</desc><defs>
<!-- image 04884 -->
<g id="transformed-04884" data-image="04884" transform="translate(167.13361456264587, 167.35361456264587) rotate(315, 20.226385437354143, 20.226385437354132)"><g><svg version="1.1" width="40.452770874708285px" height="40.452770874708264px" viewBox="0 0 40.452770874708285 40.452770874708264"><g id="original-04884"><svg xmlns="http://www.w3.org/2000/svg" viewBox="0 0 512 512" xmlns:xlink="http://www.w3.org/1999/xlink" version="1.1" preserveAspectRatio="xMidYMid meet">
  <path d="M256 31C131.737 31 31 131.736 31 256c0 124.265 100.736 225 225 225 124.265 0 225-100.735 225-225 0-124.264-100.735-225-225-225zm0 337c-61.856 0-112-50.144-112-112s50.144-112 112-112 112 50.144 112 112-50.143 112-112 112z" fill="rgba(50, 50, 50, 1)" stroke="none"/>
  <path d="M223.143 255.387c-5.94-3.156-10.272-6.684-12.995-10.581-3.712-5.321-5.569-11.447-5.569-18.378 0-11.385 5.352-20.698 16.058-27.938 8.354-5.569 19.398-8.354 33.136-8.354 18.192 0 31.635 3.466 40.329 10.396 8.692 6.931 13.041 15.656 13.041 26.175 0 6.126-1.732 11.85-5.198 17.171-2.599 3.961-6.683 7.797-12.252 11.51 7.364 3.526 12.855 8.199 16.476 14.015 3.62 5.817 5.43 12.252 5.43 19.307 0 6.807-1.564 13.164-4.688 19.074-3.125 5.909-6.961 10.473-11.509 13.69-4.549 3.218-10.21 5.584-16.986 7.101-6.775 1.516-14.001 2.273-21.673 2.273-14.419 0-25.432-1.701-33.042-5.104-7.611-3.403-13.397-8.416-17.357-15.036-3.961-6.621-5.94-14.016-5.94-22.184 0-7.982 1.856-14.743 5.569-20.281 3.711-5.538 9.434-9.823 17.17-12.856zm14.943 31.836c0 6.002 1.824 10.906 5.477 14.712 3.65 3.806 7.827 5.708 12.53 5.708 4.516 0 8.57-1.934 12.159-5.801 3.587-3.867 5.384-8.771 5.384-14.712 0-6.002-1.811-10.922-5.431-14.758-3.619-3.836-7.812-5.755-12.576-5.755-4.703 0-8.804 1.856-12.299 5.569-3.496 3.714-5.244 8.726-5.244 15.037zm2.042-58.567c0 4.704 1.47 8.493 4.409 11.371 2.938 2.877 6.853 4.315 11.741 4.315 4.33 0 7.89-1.422 10.674-4.27 2.785-2.845 4.177-6.527 4.177-11.045 0-4.702-1.454-8.523-4.362-11.463-2.909-2.938-6.622-4.409-11.138-4.409-4.581 0-8.308 1.439-11.185 4.316-2.877 2.877-4.316 6.606-4.316 11.185z" fill="rgba(50, 50, 50, 1)" stroke="none"/>
</svg>
</g></svg></g></g>
<!-- /image 04884 -->

<!-- image 34357 -->
<g id="transformed-34357" data-image="34357" transform="translate(41.884737798383505, 43.474737798383515) rotate(315, 19.755262201616496, 19.755262201616482)"><g><svg version="1.1" width="39.51052440323299px" height="39.510524403232964px" viewBox="0 0 39.51052440323299 39.510524403232964"><g id="original-34357"><svg xmlns="http://www.w3.org/2000/svg" viewBox="0 0 512 512" xmlns:xlink="http://www.w3.org/1999/xlink" version="1.1" preserveAspectRatio="xMidYMid meet">
  <path d="M256 31C131.737 31 31 131.736 31 256c0 124.265 100.736 225 225 225 124.265 0 225-100.735 225-225 0-124.264-100.735-225-225-225zm0 337c-61.856 0-112-50.144-112-112s50.144-112 112-112 112 50.144 112 112-50.143 112-112 112z" fill="rgba(50, 50, 50, 1)" stroke="none"/>
  <path d="M223.143 255.387c-5.94-3.156-10.272-6.684-12.995-10.581-3.712-5.321-5.569-11.447-5.569-18.378 0-11.385 5.352-20.698 16.058-27.938 8.354-5.569 19.398-8.354 33.136-8.354 18.192 0 31.635 3.466 40.329 10.396 8.692 6.931 13.041 15.656 13.041 26.175 0 6.126-1.732 11.85-5.198 17.171-2.599 3.961-6.683 7.797-12.252 11.51 7.364 3.526 12.855 8.199 16.476 14.015 3.62 5.817 5.43 12.252 5.43 19.307 0 6.807-1.564 13.164-4.688 19.074-3.125 5.909-6.961 10.473-11.509 13.69-4.549 3.218-10.21 5.584-16.986 7.101-6.775 1.516-14.001 2.273-21.673 2.273-14.419 0-25.432-1.701-33.042-5.104-7.611-3.403-13.397-8.416-17.357-15.036-3.961-6.621-5.94-14.016-5.94-22.184 0-7.982 1.856-14.743 5.569-20.281 3.711-5.538 9.434-9.823 17.17-12.856zm14.943 31.836c0 6.002 1.824 10.906 5.477 14.712 3.65 3.806 7.827 5.708 12.53 5.708 4.516 0 8.57-1.934 12.159-5.801 3.587-3.867 5.384-8.771 5.384-14.712 0-6.002-1.811-10.922-5.431-14.758-3.619-3.836-7.812-5.755-12.576-5.755-4.703 0-8.804 1.856-12.299 5.569-3.496 3.714-5.244 8.726-5.244 15.037zm2.042-58.567c0 4.704 1.47 8.493 4.409 11.371 2.938 2.877 6.853 4.315 11.741 4.315 4.33 0 7.89-1.422 10.674-4.27 2.785-2.845 4.177-6.527 4.177-11.045 0-4.702-1.454-8.523-4.362-11.463-2.909-2.938-6.622-4.409-11.138-4.409-4.581 0-8.308 1.439-11.185 4.316-2.877 2.877-4.316 6.606-4.316 11.185z" fill="rgba(50, 50, 50, 1)" stroke="none"/>
</svg>
</g></svg></g></g>
<!-- /image 34357 -->

<!-- image 01763 -->
<g id="transformed-01763" data-image="01763" transform="translate(246.95490295152393, 108.9483556933632) rotate(45, 2.355097048476062, 17.841644306636816)"><g><svg version="1.1" width="4.710194096952124px" height="35.68328861327363px" viewBox="0 0 4.710194096952124 35.68328861327363"><g id="original-01763"><svg xmlns="http://www.w3.org/2000/svg" viewBox="0 0 20 150" xmlns:xlink="http://www.w3.org/1999/xlink" version="1.1" preserveAspectRatio="xMidYMid meet">
  <path d="M0 0h20v150H0z" fill="rgba(50, 50, 50, 1)" stroke="none"/>
</svg>
</g></svg></g></g>
<!-- /image 01763 -->

<!-- image 79444 -->
<g id="transformed-79444" data-image="79444" transform="translate(230.95377794662446, 246.62865868895443) rotate(45, 18.116222053375534, 2.391341311045574)"><g><svg version="1.1" width="36.23244410675107px" height="4.782682622091148px" viewBox="0 0 36.23244410675107 4.782682622091148"><g id="original-79444"><svg xmlns="http://www.w3.org/2000/svg" viewBox="0 0 150 20" xmlns:xlink="http://www.w3.org/1999/xlink" version="1.1" preserveAspectRatio="xMidYMid meet">
  <path d="M0 0h150v20H0z" fill="rgba(50, 50, 50, 1)" stroke="none"/>
</svg>
</g></svg></g></g>
<!-- /image 79444 -->

<!-- image 54188 -->
<g id="transformed-54188" data-image="54188" transform="translate(121.7630712127572, 107.9287213087667) rotate(315, 2.3669287872427947, 17.931278691233302)"><g><svg version="1.1" width="4.733857574485589px" height="35.862557382466605px" viewBox="0 0 4.733857574485589 35.862557382466605"><g id="original-54188"><svg xmlns="http://www.w3.org/2000/svg" viewBox="0 0 20 150" xmlns:xlink="http://www.w3.org/1999/xlink" version="1.1" preserveAspectRatio="xMidYMid meet">
  <path d="M0 0h20v150H0z" fill="rgba(50, 50, 50, 1)" stroke="none"/>
</svg>
</g></svg></g></g>
<!-- /image 54188 -->

<!-- image 83326 -->
<g id="transformed-83326" data-image="83326" transform="translate(105.96375777031551, 246.73053602568166) rotate(135, 18.026242229684485, 2.3794639743183525)"><g><svg version="1.1" width="36.05248445936897px" height="4.758927948636705px" viewBox="0 0 36.05248445936897 4.758927948636705"><g id="original-83326"><svg xmlns="http://www.w3.org/2000/svg" viewBox="0 0 150 20" xmlns:xlink="http://www.w3.org/1999/xlink" version="1.1" preserveAspectRatio="xMidYMid meet">
  <path d="M0 0h150v20H0z" fill="rgba(50, 50, 50, 1)" stroke="none"/>
</svg>
</g></svg></g></g>
<!-- /image 83326 -->
</defs><rect x="0" y="0" width="250" height="250" fill="rgba(22, 22, 22, 1)"></rect><use xlink:href="#transformed-04884" transform="translate(-250, -250)"></use><use xlink:href="#transformed-04884" transform="translate(0, -250)"></use><use xlink:href="#transformed-04884" transform="translate(250, -250)"></use><use xlink:href="#transformed-04884" transform="translate(-250, 0)"></use><use xlink:href="#transformed-04884" transform="translate(0, 0)"></use><use xlink:href="#transformed-04884" transform="translate(250, 0)"></use><use xlink:href="#transformed-04884" transform="translate(-250, 250)"></use><use xlink:href="#transformed-04884" transform="translate(0, 250)"></use><use xlink:href="#transformed-04884" transform="translate(250, 250)"></use><use xlink:href="#transformed-34357" transform="translate(-250, -250)"></use><use xlink:href="#transformed-34357" transform="translate(0, -250)"></use><use xlink:href="#transformed-34357" transform="translate(250, -250)"></use><use xlink:href="#transformed-34357" transform="translate(-250, 0)"></use><use xlink:href="#transformed-34357" transform="translate(0, 0)"></use><use xlink:href="#transformed-34357" transform="translate(250, 0)"></use><use xlink:href="#transformed-34357" transform="translate(-250, 250)"></use><use xlink:href="#transformed-34357" transform="translate(0, 250)"></use><use xlink:href="#transformed-34357" transform="translate(250, 250)"></use><use xlink:href="#transformed-01763" transform="translate(-250, -250)"></use><use xlink:href="#transformed-01763" transform="translate(0, -250)"></use><use xlink:href="#transformed-01763" transform="translate(250, -250)"></use><use xlink:href="#transformed-01763" transform="translate(-250, 0)"></use><use xlink:href="#transformed-01763" transform="translate(0, 0)"></use><use xlink:href="#transformed-01763" transform="translate(250, 0)"></use><use xlink:href="#transformed-01763" transform="translate(-250, 250)"></use><use xlink:href="#transformed-01763" transform="translate(0, 250)"></use><use xlink:href="#transformed-01763" transform="translate(250, 250)"></use><use xlink:href="#transformed-79444" transform="translate(-250, -250)"></use><use xlink:href="#transformed-79444" transform="translate(0, -250)"></use><use xlink:href="#transformed-79444" transform="translate(250, -250)"></use><use xlink:href="#transformed-79444" transform="translate(-250, 0)"></use><use xlink:href="#transformed-79444" transform="translate(0, 0)"></use><use xlink:href="#transformed-79444" transform="translate(250, 0)"></use><use xlink:href="#transformed-79444" transform="translate(-250, 250)"></use><use xlink:href="#transformed-79444" transform="translate(0, 250)"></use><use xlink:href="#transformed-79444" transform="translate(250, 250)"></use><use xlink:href="#transformed-54188" transform="translate(-250, -250)"></use><use xlink:href="#transformed-54188" transform="translate(0, -250)"></use><use xlink:href="#transformed-54188" transform="translate(250, -250)"></use><use xlink:href="#transformed-54188" transform="translate(-250, 0)"></use><use xlink:href="#transformed-54188" transform="translate(0, 0)"></use><use xlink:href="#transformed-54188" transform="translate(250, 0)"></use><use xlink:href="#transformed-54188" transform="translate(-250, 250)"></use><use xlink:href="#transformed-54188" transform="translate(0, 250)"></use><use xlink:href="#transformed-54188" transform="translate(250, 250)"></use><use xlink:href="#transformed-83326" transform="translate(-250, -250)"></use><use xlink:href="#transformed-83326" transform="translate(0, -250)"></use><use xlink:href="#transformed-83326" transform="translate(250, -250)"></use><use xlink:href="#transformed-83326" transform="translate(-250, 0)"></use><use xlink:href="#transformed-83326" transform="translate(0, 0)"></use><use xlink:href="#transformed-83326" transform="translate(250, 0)"></use><use xlink:href="#transformed-83326" transform="translate(-250, 250)"></use><use xlink:href="#transformed-83326" transform="translate(0, 250)"></use><use xlink:href="#transformed-83326" transform="translate(250, 250)"></use></svg>